<?xml version="1.0" standalone="yes"?>
<svg xmlns="http://www.w3.org/2000/svg" width="100%" height="100%" viewBox="0 0 487 650">
<path style="fill:#e9dde1; stroke:none;" d="M0 0L0 650L487 650L487 0L0 0z"/>
<path style="fill:#362d34; stroke:none;" d="M407 17L407 49L411 49C411.305 41.9207 413.442 35.0649 414 28L417 28C417.046 44.5578 417.608 61.3889 418.015 78C418.113 82.0255 419.096 85.9629 418.977 89.9992C418.873 93.5193 417.051 95.8885 416.299 99.1697C415.515 102.589 416 106.509 416 110L436 110L436 97L433 97L432 28C436.97 33.238 434.869 45.5011 442 48L442 16C430.327 16.6803 418.712 17 407 17M338.004 17.7709C330.072 20.1804 326.848 29.8956 324.976 37C320.271 54.8567 320.94 74.1763 325.529 92C327.566 99.9104 333.047 114.978 344 112.387C351.99 110.497 355.781 100.165 357.076 93C360.451 74.3269 360.721 55.5213 356.501 37C354.755 29.3394 348.579 14.5582 338.004 17.7709M363 18C363.681 23.3876 364 28.5627 364 34L367 34L368 97L364 97L364 111L375 111L375 97C369.784 94.1238 371 88.2947 371 83C371 70.2936 370 57.7236 370 45C375.078 52.5902 376.561 62.3639 379.205 71C381.645 78.9677 383.663 87.0157 386.036 95C387.635 100.379 390.166 105.43 391 111L400 111L399 32L402 32L402 18L391 18L391 32L395 32L395 67C390.363 56.2923 387.294 44.2273 384.039 33C382.895 29.0509 382.81 21.7363 379.273 19.0286C376.102 16.6008 366.977 18.0303 363 18M298 19C296.823 33.913 293.041 49.0881 293 64L291 64C290.959 49.2751 286.123 34.8087 286 20L267 20L267 32L270 32L271 99L268 99L268 112L277 112C277 107.155 278.465 100.814 273 99L273 45C277.045 52.4634 277.195 62.658 278.282 71C280.063 84.6744 282.915 98.2487 284 112C293.777 111.883 292.518 103.02 292.965 95C293.511 85.1794 295.559 75.7335 296.715 66C297.47 59.6425 297.504 53.2653 299 47C305.143 67.7836 299 91.0276 299 112L319 112L319 99C313.2 95.8018 315 87.8072 315 82C315 65.2803 314 48.681 314 32L318 32L318 19L298 19M187 21C187 24.2119 186.597 27.7592 187.299 30.9105C187.939 33.7847 189.693 35.9888 189.942 39.0146C191.616 59.3806 190 80.5588 190 101L187 101C187 104.09 185.932 109.839 188.028 112.382C189.49 114.156 192.046 113.476 194.001 113.281C198.643 112.817 203.339 113 208 113C208 109.517 208.5 105.578 207.701 102.17C206.935 98.9061 204.659 96.4289 204.189 92.9992C203.301 86.5178 204 79.5375 204 73C215.294 74.7848 214.089 94.198 216.12 103C217.394 108.518 218.866 113.102 225 114C225 110.424 225.431 106.516 224.701 103C224.125 100.224 222.533 97.8386 222.144 95C221.279 88.7 221.76 82.2222 220.073 76C218.948 71.8563 215.103 68.0988 214.544 64C214.149 61.1047 216.489 57.7902 217.191 55C219.252 46.8132 219.928 38.2116 217.571 30C216.492 26.2419 214.973 22.0883 210.981 20.6073C208.097 19.5372 204.929 20.5517 202 20.8303C197.049 21.3011 191.97 21 187 21M228 21C228.135 27.5525 231.44 32.8118 231.942 39.0038C233.569 59.0525 232 79.8792 232 100L229 100L229 113L263 113L263 80C253.459 83.3199 260.69 95.8459 255.258 101.397C253.048 103.654 248.86 102.998 246 103C246 94.1774 243.982 82.5714 246.317 74.0632C247.088 71.2558 249.812 70.081 251.258 73.1674C252.465 75.7435 251.998 79.2344 252 82L254 82L254 50L251 50L251 60L246 60C246 51.9539 244.857 42.9597 246.148 35.0193C246.645 31.9635 249.335 29.0543 252.582 31.0471C258.985 34.977 254.023 46.3782 262 49C261.975 39.5759 260.362 29.2368 262 20L228 21M163 21L163 34L166 34L166 101L163 101L163 114L183 114C183 110.509 183.485 106.589 182.701 103.17C182.038 100.275 180.306 98.0573 180.058 94.9962C178.751 78.8889 179.999 62.1644 180 46C180 40.2756 181.207 35.561 182.231 30C182.638 27.7943 183.494 24.5762 181.968 22.6034C179.137 18.9417 167.233 21 163 21M77 80C69.6378 82.3036 70.5275 90.7119 69.2269 96.9992C68.6958 99.5665 67.5068 103.544 64.0748 103.079C57.8372 102.234 56.634 89.7194 56.1698 85C54.5984 69.0272 52.1749 44.6944 67 34C68.5971 40.1572 68.7062 52.7836 76 54C76 43.6126 75.6972 33.3083 77 23C72.6353 23.34 71.3401 24.6353 71 29C69.0622 27.0258 67.4443 24.3519 64.946 23.027C54.0262 17.2366 47.0527 31.8924 44.885 40C39.6206 59.6902 37.909 86.0807 46.7963 105C49.0288 109.753 52.5968 114.913 58 116.304C66.3148 118.445 75.1443 108.518 75.8951 101C76.5944 93.9965 76.1121 87.0259 77 80M81 23L81 36L84 36C84 55.7912 85.5424 76.2759 83.9421 95.9962C83.6938 99.0565 81.9763 101.277 81.2978 104.17C80.4917 107.606 80.4448 111.481 80 115L103 115C105.684 115 110.136 115.776 112.396 113.972C115.107 111.809 113.285 106.854 113.09 104C112.441 94.5233 114.566 84.2574 113 75C106.79 79.1147 106.832 88.1937 106.17 95C105.886 97.9138 106.646 103.244 102.871 104.248C96.2176 106.019 98 92.3705 98 89L98 35L102 35L102 22C94.9549 22.8903 88.1026 23 81 23M130 22C129.983 48.0372 123.046 74.0785 121 100L118 100L118 115L128 115L128 100L125 100C125.042 94.936 124.518 83.1221 129.303 80.0278C131.692 78.483 135.295 79.0021 138 79C138.005 86.4304 139.418 93.6209 140 101L137 101L136 114L158 114L158 101C152.825 97.8342 152.388 85.8069 152.036 80C150.862 60.5964 146 41.4916 146 22L130 22z"/>
<path style="fill:#e9dde1; stroke:none;" d="M418.333 24.6667C418.278 24.722 418.222 25.7779 418.667 25.3333C418.722 25.2776 418.778 24.2224 418.333 24.6667M204 28L204 53C204.002 57.3672 203.299 61.4396 208 63C210.977 54.6133 211.823 47.8795 210.999 39C210.529 33.9263 209.579 28.9597 204 28M342.529 36.0471C338.995 38.1513 338.182 43.3325 337.591 47C335.915 57.4078 335.444 71.7566 338.004 82C339.009 86.0231 341.493 96.926 347.895 93.9136C352.094 91.9377 352.595 85.9822 353.246 82C355.176 70.1943 355.178 58.7517 352.904 47C352.122 42.9547 348.6 32.4328 342.529 36.0471z"/>
<path style="fill:#362d34; stroke:none;" d="M460 38C461.969 48.6045 460.823 59.3539 460.09 70C457.498 107.626 447.306 143.062 426.782 175C421.33 183.485 414.889 191.1 408.661 199C405.435 203.092 402.083 208.315 397 210.258C393.3 211.672 388.879 210.828 385 211.285C372.154 212.801 358.934 212 346 212C310.629 212 275.392 213 240 213C242.36 217.72 245.932 218.764 251 219C251.095 221.009 251.129 222.993 251.12 225.004C251.062 239.249 264.52 225.227 270.04 224.029C274.244 223.116 278.33 226.489 282 228L282 231C275.971 232.124 272.229 232.031 272 239C269.918 237.902 268.33 237.315 266 237C266.5 243.412 270.433 241.723 275 244.593C277.567 246.206 279.73 248.673 283 248.627C285.81 248.588 288.128 246.151 290.895 246.302C295.185 246.536 294.859 253.283 299.133 253.253C302.543 253.229 305.854 249.886 309 248.752C314.523 246.762 318.457 247.284 324 248L323 255C319.104 254.287 315.896 254.287 312 255C311.694 257.511 309.904 261.249 310.732 263.683C311.468 265.846 314.134 265.996 316.005 266.459C320.125 267.479 323.709 268.876 328 269C325.563 276.182 319.066 281.019 316 288C314.036 286.898 312.518 286.091 311.594 283.896C310.809 282.031 311.164 279.541 309.397 278.183C304.386 274.335 298.79 281.7 294.029 275.102C293.36 274.174 293.299 273.054 293 272L299 271C298.694 261.795 290.785 263.143 284.039 260.451C280.797 259.157 278.69 256.326 274.985 256.163C270.169 255.95 266.675 258.856 262.019 255.99C259.783 254.613 257.926 252.66 257.487 249.996C256.882 246.326 258.566 242.591 253.946 240.938C249.107 239.205 248.125 243.253 248 247C243.016 245.983 242.473 242.551 238.586 240.214C234.987 238.05 229.54 239.563 226 241C224.579 237.381 221.855 231.748 217 233.323C214.544 234.119 212.849 236.626 210.17 236.856C207.309 237.103 205.099 235.474 202 236C201.646 230.91 202.568 227.746 200 223C196.254 223.736 186.451 225.826 183.573 222.438C181.696 220.229 182.024 216.689 182 214L104 214C94.532 214 80.7758 217.485 72.0154 212.972C68.3547 211.086 66.0084 206.975 63.5255 203.834C56.6659 195.156 50.9271 185.72 45.6921 176C23.5677 134.921 17.193 88.9482 23 43C18.8191 45.379 17.7543 49.7095 15.9892 54C12.2208 63.16 8.92578 72.3981 6.52469 82C-1.20985 112.93 -0.0260792 144.481 9.03627 175C11.4436 183.107 14.4425 191.266 17.8619 199C19.7473 203.264 22.7192 207.462 23.8642 212C24.808 215.741 24.0015 220.159 24 224L24 250L24 299C24 306.683 25.1658 315.434 23.7716 322.996C22.9793 327.294 19.004 329.151 17.6173 333.039C16.6313 335.804 18.0241 338.835 16.5965 341.486C14.9705 344.505 11.476 346.1 11.456 349.965C11.442 352.667 13.5431 354.91 14.8704 357.09C18.1627 362.495 22.729 367.424 22.9815 374C23.5714 389.367 22.0787 404.722 22.0787 420C22.0787 476.52 20 533.341 20 590L208 591C205.948 590.126 204.253 590.047 202 590L202 588C203.878 587.824 205.199 587.562 207 587L207 585L204 584C205.801 583.438 207.122 583.176 209 583C209 581.203 208.986 581.479 208 580C209.797 580 209.522 579.986 211 579L207 573L213 573C212.15 570.411 211.556 569.424 214 568C212.226 562.652 208.418 558.557 205.201 554C198.147 544.009 190.409 534.518 182.849 524.911C151.946 485.64 117.088 450.503 81 416.039C70.5747 406.083 58.9805 397.44 48 388.134C44.5554 385.215 37.8239 382.021 35.9066 377.827C33.8528 373.335 40.1193 370.011 43.7006 372.032C46.7518 373.754 48.6754 377.498 51.0903 379.957C54.8716 383.807 59.8324 387.124 65 388.776C72.8276 391.279 83.2965 389.798 91 387.314C95.49 385.866 100.258 383.226 105 382.811C108.631 382.493 111.763 384.793 115 386.074C119.409 387.819 124.292 389.119 129 389.71C139.325 391.005 152.5 381.037 161.725 388.588C168.86 394.427 170.924 406.539 175.955 413.995C179.106 418.664 185.202 420.544 187.973 425.29C191.076 430.605 190.937 438.254 193.81 444C196.149 448.678 199.353 453.003 203.325 456.421C205.926 458.659 209.361 460.369 211.397 463.184C213.252 465.748 213.126 469.151 214.367 471.999C216.071 475.909 219.016 478.239 221.946 481.17C224.658 483.883 226.647 487.15 227.231 491C228.171 497.197 226.53 506.515 236 504C235.661 500.969 235.895 498.046 236 495C239.48 498.827 236.786 503.963 243 505C242.101 503.088 241.925 502.114 242 500C243.635 500.545 243.455 500.365 244 502C246.714 497.463 243.964 492.326 246.618 488.004C249.809 482.808 255.919 479.631 259.852 474.999C262.471 471.914 262.52 468.266 264.603 465C269.075 457.988 275.283 452.752 278.958 445C281.757 439.095 281.468 430.611 284.988 425.376C288.402 420.299 294.309 417.56 297.685 412C301.52 405.685 303.159 398.936 310 394.858C319.593 389.139 331.1 396.698 341 396.985C351.327 397.283 360.003 391.594 370 390.898C378.026 390.339 385.747 393.786 394 392.711C411.041 390.49 423.601 371.864 427 356C433.414 355.999 439.603 355.513 446 356C440.148 363.928 430.423 369.775 423 376.286C411.032 386.785 399.506 398.038 388 409.039C348.505 446.805 310.363 487.215 278.799 532C271.638 542.16 263.752 551.791 256.656 562C253.467 566.589 249.941 570.708 248 576C252.313 573.767 254.152 569.393 259 568L256 576L260 575L260 578L267 576L263 581L268 580L267 584L275 583C272.224 586.408 269.182 588.613 265 590C269.469 591.875 275.191 591 280 591C285.359 591 290.69 591.821 296 591.821C301.05 591.821 305.889 590.683 311 591.17C333.757 593.335 357.125 592 380 592C409.036 592 437.907 593 467 593C467 529.365 463 465.666 463 402C461.676 401.754 460.301 401.413 458.955 401.291C458.006 401.205 456.971 401.024 456.019 401.188C447.327 402.683 457.318 410.924 453.381 415.667C451.197 418.299 447.875 416.966 445 417.598C441.886 418.283 439.358 420.788 436.043 420.719C433.009 420.656 430.79 417.903 428 417L428 413C436.092 414.684 435.769 407.258 428 407C430.234 404.704 431.802 404.23 435 404L437 396C433.519 395.11 431.343 394.47 428 396C428.323 393.968 428.34 393.018 428 391C426.012 392.556 424.271 393.914 422 395C421.481 391.657 418.883 387.293 420.157 384.004C421.615 380.244 426.097 377.526 429 374.95C434.8 369.803 441.461 365.426 446.907 359.91C452.159 354.59 452.882 349.841 461 350C461 345.456 460.432 340.477 461.274 336C461.785 333.282 463.587 330.801 463.629 328C463.691 323.783 460.207 320.393 460.019 316C459.249 298.012 459.749 279.995 458.961 262C458.212 244.904 456.572 227.115 458 210L454 210C457.029 199.703 463.529 190.448 466.63 180C476.374 147.173 480.707 114.036 475.08 80C473.497 70.4252 471.308 61.2296 468.344 52C466.625 46.6479 464.957 41.1554 460 38z"/>
<path style="fill:#e9dde1; stroke:none;" d="M132 41C129.459 49.0352 129.023 58.5933 129 67L136 67C135.98 59.7708 136.429 46.8386 132 41M463 48C463 106.442 446.462 163.949 404.575 206.715C390.096 221.497 373.983 234.685 357.83 247.576C352.931 251.486 347.612 254.816 343 259.09C323.377 277.275 306.376 301.216 294.472 325C289.857 334.222 282.245 340.494 280 351C289.074 345.855 290.576 332.047 300 327C294.555 334.026 286.194 343.024 285 352C291.368 346.737 295.817 338.466 301.003 332.004C310.445 320.238 322.176 307.652 334.004 298.289C346.537 288.369 361.829 282.329 376 275.291C388.694 268.986 400.644 261.347 411.996 252.845C455.107 220.556 471.56 170.589 475.09 119C476.222 102.453 474.038 86.2836 470.8 70C469.331 62.61 468.019 53.8608 463 48M19 52C9.27674 68.7634 5.44676 90.9344 3.91435 110C-1.12538 172.702 29.9061 234.054 79.0008 272.335C104.858 292.496 135.721 304.743 162 324.475C169.441 330.063 176.595 336.07 182.829 343C186.347 346.91 189 351.608 193 355C191.956 344.863 183.897 336.514 179 328C183.193 331.412 187.718 334.809 191.073 339.09C193.487 342.17 194.687 345.83 198 348C194.895 336.647 189.193 324.108 181.678 315.001C171.956 303.219 158.723 294.035 147.09 284.282C116.119 258.318 82.563 234.169 58.7461 201C37.7622 171.776 25.0697 137.538 20.2824 102C18.7646 90.7325 18.7363 79.3638 19.0147 68C19.1448 62.6876 21.1259 57.0662 19 52z"/>
<path style="fill:#362d34; stroke:none;" d="M246 172C245.921 162.438 243.588 151.21 241 142L239 142C235.734 155.679 235.609 170.152 233 184C226.504 170.73 231.123 153.948 227 140C222.855 143.62 221.557 148.855 219.95 154C216.472 165.133 206.79 181.323 210 193L212 193C214.974 184.287 215.369 178.096 226 178C226.589 182.662 226.911 187.43 228 192L230 192C231.104 190.543 231.543 190.104 233 189C233.482 191.364 233.636 191.518 236 192C237.603 185.494 238.473 178.674 239 172C242.45 175.636 242.692 180.492 244.63 184.995C245.347 186.658 246.532 189.701 248.79 189.654C251.862 189.591 251.452 180.147 251.715 178C253.284 165.226 255.894 151.86 256 139C245.21 144.808 254.056 164.111 246 172M327 139C321.098 149.485 318.31 162.52 314.795 174C312.846 180.363 310.414 185.262 312 192L314 192C315.392 187.058 317.377 182.084 318 177C321.422 176.972 324.637 176.625 328 176C328.873 180.7 329 185.231 329 190C331.119 189.864 335.785 191.052 337.486 189.847C339.17 188.654 339.024 185.805 339.282 183.999C340.049 178.612 340.985 173.461 341 168L344 168L345 187C348.799 185.889 348.974 182.575 349.87 179C351.093 174.126 352.223 169.483 356 166C355.996 172.597 351.679 186.902 358 191C359.909 182.644 359.506 174.522 360.09 166C360.683 157.333 361.994 148.703 362 140C353.109 142.878 354.443 158.889 348 165C347.333 156.542 347.99 146.984 345 139C340.847 141.912 341.309 146.346 340.562 151C338.905 161.316 336.007 171.523 336 182L333 182C333 167.889 331.577 152.881 329 139L327 139M383 176C383 179.466 382.411 183.752 384.179 186.891C388.718 194.951 396.88 187.689 400.235 182.715C404.654 176.163 404 167.528 404 160C399.237 160.001 394.716 160.404 390 161C390.727 155.572 395.385 148.233 401 153L403 153C404.794 146.931 405.173 136.546 396.001 140.612C394.956 141.075 393.937 141.77 393.043 142.475C388.965 145.69 386.191 151.06 384.789 156C383.686 159.886 382.997 166.433 386.434 169.396C388.873 171.499 398.979 168.862 397.248 174.016C394.605 181.887 387.976 176.811 383 176M254 193C268.025 190.836 273.725 170.601 276.849 159C278.127 154.251 280.094 148.729 277.543 144.059C274.457 138.408 264.506 139.814 260.858 144.419C258.662 147.191 258.874 151.655 258.424 155C257.708 160.327 257.175 165.672 256.424 171C255.405 178.236 254.151 185.695 254 193M313 159C303.131 159.43 299.028 163.124 299 173C301.806 172.657 304.305 171.845 307 171C305.273 176.177 296.442 185.697 293.573 175.981C290.931 167.029 301.181 144.201 311 156C316.411 149.778 312.988 135.682 303.04 141.515C292.371 147.77 288.816 165.673 288.09 177C287.829 181.075 287.858 187.54 291.314 190.397C295.645 193.978 301.595 190.416 304.61 186.906C311.092 179.357 312.994 168.594 313 159M362 191C371.194 190.785 380.425 187.609 379 177C376.541 177.221 374.415 177.915 372.018 178.392C367.973 179.196 366.17 175.646 368.747 172.419C370.741 169.922 374.194 169.719 376.656 167.914C379.955 165.496 379.959 161.712 380 158L369 160L370 152C379.494 151.994 383.782 150.213 384 140C379.796 140.192 370.823 141.067 368.013 144.589C365.251 148.051 365.32 155.756 364.925 160C363.956 170.416 362 180.511 362 191M108.039 143.072C104.916 144.512 102.629 148.155 100.931 151C96.1223 159.053 92.6749 171.583 93.1042 181C93.3489 186.368 95.2952 196.974 102.985 193.891C107.358 192.137 109.127 187.996 110.927 184C115.022 174.905 117.082 164.984 116.995 155C116.955 150.368 115.156 139.788 108.039 143.072M124 142C121.032 151.342 119.86 161.338 118.247 171C116.941 178.821 115.001 186.024 115 194C122.047 191.584 121.31 176.531 123 170C124.976 176.247 123.355 184.665 127 190C130.611 183.147 132.193 175.237 135 168C137.318 175.841 135 184.874 135 193C141.525 192.97 149.685 196.523 152.137 188.02C152.61 186.38 152.781 184.683 153 183C148.489 180.076 150.336 174.602 151.196 170C152.051 165.424 151.962 160.515 153.275 156.039C154.859 150.641 157.945 148.074 158 142C152.23 142.123 145.321 143.403 146.389 150.911C146.809 153.864 148.688 155.87 148.518 159.015C147.984 168.886 147.387 180.781 140 188C140 172.928 142 158.066 142 143C135.755 146.462 132.035 161.097 131 168C124.939 161.532 128.364 149.998 126 142L124 142M174 175C170.646 176.698 167.811 181.589 164.055 182.079C160.164 182.586 159.991 177.6 160.295 175.001C160.877 170.017 163.414 162.574 166.278 158.448C169.748 153.45 172.635 156.234 173 161C176.89 158.286 177.425 152.52 176.81 148.005C176.458 145.417 175.242 141.981 171.949 142.752C167.55 143.781 164.928 149.368 163.085 153C158.898 161.249 156.057 170.741 155.326 180C155.053 183.451 155.42 188.908 157.742 191.681C160.287 194.723 164.211 193.653 166.981 191.566C172.448 187.449 173.942 181.471 174 175M193 173C192.193 176.986 189.855 181.601 185.039 181.473C182.32 181.401 179.743 179.424 177 179C177.006 181.323 176.906 183.702 177.329 185.998C178.53 192.513 184.169 194.508 189.482 190.517C194.887 186.457 198.14 177.544 198.811 171C199.147 167.72 198.518 163.863 194.941 162.693C191.685 161.628 187.246 163.37 184 164C185.204 156.2 190.73 152.818 198 155C198.368 153.016 198.819 151.02 198.895 148.996C199.131 142.717 194.559 140.404 189.289 144.009C183.15 148.209 178.859 156.717 178.177 164C177.852 167.474 178.309 171.967 182.109 173.357C185.234 174.5 189.703 173.068 193 173M91 176C85.6802 178.591 83.3543 183.521 77 184C77.0811 174.207 79.2574 159.653 89 155C89.5072 157.436 90.1196 159.674 91 162C93.8597 158.366 94.6375 152.598 93.7716 148.019C93.3047 145.55 91.8446 143.176 88.9707 143.89C84.6381 144.967 82.1055 150.41 80.2593 154C76.1221 162.045 73.9564 170.091 72.7299 179C72.1428 183.265 71.7252 189.107 74.7384 192.682C77.6332 196.116 81.8819 194.541 84.6744 191.941C89.1783 187.748 92.538 182.157 91 176z"/>
<path style="fill:#e9dde1; stroke:none;" d="M260 179C266.94 175.616 270.892 167.287 272.572 160C273.046 157.943 274.217 154.544 272.883 152.604C271.224 150.193 267.151 151.395 265.317 152.894C261.856 155.722 261.774 162.884 261.081 167C260.402 171.031 260.011 174.912 260 179M106.996 154.086C100.364 157.04 98.3209 168.541 98.0409 175C97.9028 178.184 97.9163 184.966 103.001 183.338C110.426 180.961 112.113 167.455 112.485 161C112.677 157.677 111.643 152.017 106.996 154.086M324 158C322.695 161.077 322.097 163.66 322 167L327 167C326.974 163.878 326.724 161.039 326 158L324 158M220 169C225.225 168.128 224.984 164.655 225 160C220.702 161.413 220.346 164.813 220 169M283 216L283 218L285 218L285 216L283 216M108.043 220.769C98.0825 224.257 102.566 241.143 112.829 238.407C124.931 235.181 120.214 216.508 108.043 220.769z"/>
<path style="fill:#362d34; stroke:none;" d="M108 225C110.852 226.188 113.06 225.864 116 225C113.354 224.185 110.774 224.787 108 225z"/>
<path style="fill:#e9dde1; stroke:none;" d="M151 248C150.523 244.324 149.8 241.247 148 238C152.871 237.633 155.523 237.179 159 241C152.621 241.353 152.021 244.114 152 250C154.398 249.992 158.132 250.558 159.818 248.397C161.337 246.449 160.818 243.291 160.86 241C160.957 235.78 162.465 229.123 156 228L156 224C151.233 224.227 145.55 223.53 141.638 226.899C132.053 235.153 141.614 246.728 151 248M335 225C335.674 227.297 335.965 227.774 338 229L338 225L335 225z"/>
<path style="fill:#362d34; stroke:none;" d="M146 227C146.406 229.092 146.217 229.02 148 230C147.316 228.42 147.195 228.223 146 227M151 227L150 230C152.018 230.987 152.801 231.233 155 231L151 227M111 231C113.709 230.352 116.216 230.058 119 230C116.142 227.88 111.91 226.754 111 231M157.333 230.667C157.278 230.722 157.222 231.778 157.667 231.333C157.722 231.278 157.778 230.222 157.333 230.667M105 231C106.884 233.981 108.561 234.567 112 234C109.739 232.382 107.717 231.585 105 231M143.333 235.667C143.278 235.722 143.222 236.778 143.667 236.333C143.722 236.278 143.778 235.222 143.333 235.667z"/>
<path style="fill:#e9dde1; stroke:none;" d="M218 236L217 240C218.608 238.55 219.064 237.949 220 236L218 236M279 237C280.038 240.591 281.409 241.962 285 243L286 240C283.688 238.829 281.455 237.825 279 237M342 237C342.674 239.297 342.965 239.774 345 241L345 237L342 237M440 243C440.211 245.739 440.302 246.422 443 247L442 243L440 243z"/>
<path style="fill:#362d34; stroke:none;" d="M154 248L158 248L158 244C155.374 244.839 154.839 245.374 154 248z"/>
<path style="fill:#e9dde1; stroke:none;" d="M221 246L221 250L224 250L224 246L221 246M131 248C129.222 255.801 137.77 251.758 131 248M232 254L232 258C234.035 256.774 234.326 256.297 235 254L232 254M174 257C175.283 265.042 182.893 263.087 184 256L174 257M187 256L187 259L189 259L189 256L187 256M313 262C315.471 260.719 316.256 259.68 317 257C314.453 258.373 313.812 259.218 313 262M424 259L424 264L427 264L427 259L424 259M327 264C328.248 264.685 328.548 264.749 330 265C328.752 264.315 328.452 264.251 327 264M436 264L436 270C438.669 268.268 438.71 267.058 438 264L436 264M147 273C147.344 277.51 151.747 283.663 156.397 278.553C158.037 276.751 157.926 274.261 158 272L147 273M197 326L199 326L199 322L201 322C201.019 327.514 203.713 331.744 204.142 337.001C204.395 340.095 202.702 342.909 204.198 345.91C206.939 351.413 212.898 353.817 215 360C213.012 358.444 211.271 357.086 209 356C210.306 362.304 212.193 370.028 219 372C217.586 367.803 215.409 364.532 215 360C217.115 363.862 219.201 367.828 220.641 372C222.091 376.197 222.428 380.433 227 382L228 376C223.316 371.181 221.746 363.306 230 362C228.658 358.096 226.999 356.149 223 355C221.817 357.328 220.777 359.511 220 362C219.695 356.984 223.448 353.081 224 348L217 350C218.519 347.6 219.563 345.81 220 343L209 340C210.192 336.762 211.296 329.57 216.019 330.037C219.216 330.353 226.921 340.514 229.673 334.677C231.491 330.822 225.05 325.988 223.059 323.285C219.809 318.875 221.473 313.177 218.397 309.153C212.769 301.791 206.378 313.859 206.279 319C206.214 322.355 207.667 325.656 208 329L205 329C204.411 321.473 204.527 315.772 208.429 309.001C209.942 306.376 211.641 303.008 215.043 302.785C221.425 302.369 225.453 309.604 231.715 309.285C239.09 308.908 246.59 303.458 254 302C253.62 307.291 245.443 310.352 251 314L248 315L248 317C249.801 317.562 251.122 317.824 253 318C247.545 323.976 243.094 326.032 242 335C247.545 332.699 251.856 328.667 258 328C258.036 323.762 258.145 320.283 261 317L260 324C265.358 322.116 265.254 312.758 262.063 308.613C260.538 306.632 258.238 305.831 256 305C264.334 304.538 266.857 312.818 266.161 320C265.768 324.056 263.042 327.156 267 330C268.338 324.096 272.091 318.944 273.351 313C274.324 308.41 273.263 301.414 271.751 297C265.827 279.71 249.081 272.001 232 272C224.654 272 217.936 272.195 212.093 277.34C205.895 282.799 199.624 294.688 199.056 303C198.759 307.339 200.65 311.606 200.24 315.829C199.896 319.377 197.481 322.392 197 326M288 274L288 277L290 277L290 274L288 274M407 277C407.418 279.69 407.717 280.554 410 282C409.824 280.122 409.562 278.801 409 277L407 277M180 279C180.626 290.397 191.659 288.509 192 278C187.881 278.399 184.177 279.314 180 279M303.667 280.333C303.222 280.778 304.278 280.722 304.333 280.667C304.778 280.222 303.722 280.278 303.667 280.333M79 281L79 284L81 284L81 281L79 281M73 282L74 286L76 286L77 285L77 283L73 282M42.3333 286.667C42.2778 286.722 42.2222 287.778 42.6667 287.333C42.7222 287.278 42.7778 286.222 42.3333 286.667M284 286L284 291C287.844 289.723 287.844 287.277 284 286M290 290L290 293L292 293L292 290L290 290M400 317C401.568 312.872 403.506 309.731 407 307C406.336 314.554 402.538 321.012 400 328L399 326C397.921 328.823 398.595 330.362 400 333C396.751 333.805 393.994 335.51 391 337L391 330C385.84 331.714 386.28 341.642 389.603 345.428C392.206 348.393 397.452 349.061 401 350.366C404.929 351.811 408.351 353.916 410 349C403.218 347.169 398.178 345.001 391 345C393.417 342.455 395.39 340.116 397 337L399 337C401.419 341.144 404.545 341.831 409 343C406.824 338.963 402.785 336.632 400 333C405.429 336.335 409.481 338.86 416 339C416.123 333.071 417.57 327.482 419.826 322C421.908 316.94 424.406 313.655 424 308C413.856 311.08 420.742 327.859 412.581 333.208C408.382 335.959 403.685 329.949 404.797 326C405.626 323.057 408.125 320.825 409.28 318.004C411.615 312.299 411.569 305.163 415.029 300.019C418.621 294.678 423.612 294.345 425 301C429.971 297.685 424.732 292.426 419.999 292.568C412.657 292.789 406.475 302.122 402.09 307C399.071 310.36 396.581 313.307 400 317M99 298C100.248 298.685 100.548 298.749 102 299C100.752 298.315 100.452 298.251 99 298M375 300L375 318C375.004 320.168 374.498 323.561 376.028 325.357C378.196 327.903 383.695 325.723 385.91 324.276C391.202 320.819 394.128 315.059 397.525 310C398.847 308.031 401.436 305.753 401.079 303.13C400.559 299.316 394.992 298.375 392 298C391.803 300.614 388.764 309.548 385.028 304.625C383.699 302.874 384.024 300.05 384 298L375 300M93 299C94.5335 301.561 96.8956 302.899 99 305L93 304C93 309.306 90.378 319.215 93.0285 323.79C94.3225 326.024 96.7998 327.16 98.9074 328.459C101.224 329.887 103.514 332.443 106.184 333.124C111.425 334.462 119.354 331.876 125 332.015C133.014 332.212 137.47 335.02 144 329L142 325C143.797 325 143.521 324.986 145 324C143.457 322.733 142.952 322.511 141 322L142 325C138.054 323.443 134.392 321.547 131 319L138 320C138 318.203 137.986 318.479 137 317C134.623 317.572 132.442 317.89 130 318L129 314C128.315 315.248 128.251 315.548 128 317C123.623 315.015 120.989 313.059 116 313L116 309C110.604 309.945 107.174 307.82 102 307L104 303C100.4 301.297 96.9308 299.699 93 299M424 307L430 310C430.825 304.702 435.362 303.52 437 299C431.499 299.761 426.786 302.038 424 307M76 301C76.8993 303.124 76.8764 303.101 79 304C78.5176 301.636 78.364 301.482 76 301M439 301C440.144 307.556 438.08 314.773 434 320C434.9 317.06 435.528 315.026 435 312L433 312C430.591 318.61 431.811 325.456 429.945 332C427.68 339.945 422.675 345.875 418 352C423.922 351.203 428.089 350.665 434 352C432.332 349.3 429.52 347.309 428.992 343.985C428.486 340.795 430.049 337.873 431.179 335C433.536 329.012 434.869 323.254 440 319C437.536 322.491 435.988 325.842 435 330C447.215 326.733 437.336 315.676 443 309C442.512 305.475 442.084 302.942 439 301M47 306C46.9167 309.908 46.1785 313.282 45 317C41.2965 315.582 34.2608 312.237 30.858 315.743C27.6713 319.026 29.5026 325.065 30 329L25 327C22.3228 330.014 16.7258 334.206 21 338L20 334L26 332C26.0679 340.091 30.3317 346.227 34.9514 352.715C39.1743 358.645 43.4795 361.343 41 369C48.3305 368.913 50.1422 364.734 54 359C50.9424 358.29 49.7316 358.331 48 361C38.8978 357.838 34.4446 343.014 30 335C32.8166 337.377 34.6929 340.29 38 342C36.8351 338.609 34.2854 336.21 33.0285 332.91C31.3957 328.624 32 323.499 32 319C34.9845 320.583 37.2578 323.014 40 325C40.5307 322.31 41.1158 320.98 43 319C40.6672 325.399 40.1699 331.285 41 338C43.6398 336.203 44.7713 333.284 47 331C47.0035 336.294 48.1272 340.845 49 346C51.4815 340.073 48.4629 331.074 47 325C49.0786 328.731 50.286 332.786 51 337C54.9009 327.436 44.5229 315.081 53 307C52.0143 308.478 52 308.203 52 310C54.3076 309.584 55.9094 309.057 58 308C57.3627 313.155 57.8936 317.845 58 323L63 319C60.4683 325.77 63.4637 327.687 65.0224 334.004C66.1542 338.591 66 343.317 66 348C72.7365 349.331 76.6341 351.942 78 359C75.3105 359.418 74.4463 359.717 73 362C70.9583 361.105 69.1723 360.464 67 360L67 366C63.8783 366.026 61.0395 366.276 58 367L57 361C49.9568 362.981 56.0931 371.853 62 370.417C66.1921 369.397 69.998 366.427 74 364.81C76.1008 363.961 78.9774 363.393 80.5046 361.583C85.8673 355.23 75.58 347.198 70 347C74.2967 338.74 68.1086 328.726 67 320L69 320C69.3695 324.523 70.6224 328.692 72 333L75 332C76.2143 335.506 79.1179 337.722 80.4005 341.09C82.1467 345.674 79.4571 350.79 84 354C84.3295 349.859 86.2207 345.11 85.338 341C83.8562 334.1 76.5917 327.132 72.1258 322C67.2573 316.405 63.3415 303.318 54.1698 303.498C51.7959 303.545 49.2439 305.279 47 306M106 304C107.314 305.618 107.877 305.693 110 306C108.542 304.919 107.752 304.564 106 304M114 304C116.943 308.141 124.223 310.491 129 312C126.147 306.973 119.572 304.571 114 304M188 308C188.916 311.811 190.199 313.828 194 315L194 311C191.43 310.525 190.225 309.086 188 308M367 312L371 312L371 308C368.374 308.839 367.839 309.374 367 312M443 310C443.654 313.054 445.007 312.936 448 313C446.535 310.878 445.543 310.526 443 310z"/>
<path style="fill:#362d34; stroke:none;" d="M259 311L259 314L261 314L261 311L259 311z"/>
<path style="fill:#e9dde1; stroke:none;" d="M354 312C355.659 312.406 356.242 312.309 358 312C356.191 311.426 355.931 311.535 354 312M451 312C451.375 315.173 451.615 317.849 451 321C454.75 318.293 454.104 315.041 451 312z"/>
<path style="fill:#362d34; stroke:none;" d="M304 313C302.45 314.715 301.756 315.823 301 318C303.015 316.356 304.098 315.587 304 313z"/>
<path style="fill:#e9dde1; stroke:none;" d="M358 313L355 315C357.047 315.705 358.397 315.294 358 313z"/>
<path style="fill:#362d34; stroke:none;" d="M211 315C211.095 319.739 211.335 324.259 211 329C213.944 325.113 213 319.716 213 315L211 315z"/>
<path style="fill:#e9dde1; stroke:none;" d="M348 316C348.661 317.396 348.964 317.814 350 319C345.046 320.43 340.889 323.453 336 325L341 322C337.543 321.051 324.434 325.373 327.751 330.545C329.404 333.122 337.112 339.139 340.171 339.477C343.018 339.792 346.112 338.204 349 338.043C357.59 337.565 366.718 335.541 371.972 327.53C373.794 324.752 373 320.168 373 317L359 317C359 318.797 359.014 318.521 360 320C357.081 319.513 357.489 320.043 358 318C355.194 317.574 354.052 316.965 352 315L348 316M394 317L392 322C394.853 321.013 395.373 319.936 396 317L394 317M447 331C451.043 328.326 454.639 325.815 456 321C451.447 323.087 447.824 325.888 447 331M272 322C273.535 328.523 270.74 334.539 272 341C278.519 339.632 281.537 337.484 283.611 331.001C284.301 328.843 285.043 326.574 283.378 324.653C280.708 321.571 275.651 322.01 272 322z"/>
<path style="fill:#362d34; stroke:none;" d="M45 323C45.5451 324.635 45.3648 324.455 47 325L47 323L45 323z"/>
<path style="fill:#e9dde1; stroke:none;" d="M191 324C192.118 329.861 195.85 340.786 201 344C200.783 337.165 197.139 330.81 196 324L191 324M79 325C80.6387 329.937 84.6457 328.506 89 329.379C92.7718 330.135 96.2886 331.985 100 333C95.087 327.284 86.3358 325.156 79 325M213 403C213 397.495 213.928 388.984 210.258 384.394C208.394 382.061 205.2 380.991 203 379C205.695 379.845 208.194 380.657 211 381L208 364C202.633 367.833 204.631 377.184 195.138 374.302C193.702 373.867 193.048 372.982 192 372L195 373C194.383 370.296 193.456 368.371 192 366C191.315 367.248 191.251 367.548 191 369C189.715 365.958 189.15 363.297 189 360L191 360C191.708 364.47 194.249 368.12 199 368C198.52 370.36 198.481 371.663 199 374L203 373C201.987 367.159 197.899 363.465 196 358C193.944 358.487 192.856 358.952 191 360C189.954 352.803 183.224 342.143 176 340L175 345C173.814 343.814 173.416 343.472 172 343L168 348C169.156 344.849 173.207 340.318 171.84 336.91C167.629 326.422 155.636 322.832 147.015 329.354C145.417 330.563 143.085 332.246 142.497 334.282C141.755 336.854 144.247 338.804 145.85 340.385C150.225 344.702 153.954 349.37 159.001 352.965C165.157 357.349 169.587 362.759 175.001 367.961C180.87 373.6 187.334 378.652 193 384.51C198.951 390.663 205.568 398.75 213 403M387 328C389.124 327.101 389.101 327.124 390 325C387.876 325.899 387.899 325.876 387 328M460 326L458 332C461.193 330.881 461.625 329.284 462 326L460 326M357 350C360.715 347.907 362.213 344.166 365.185 341.184C369.739 336.616 376.199 332.744 382 330C381.105 332.042 380.464 333.828 380 336C384.702 334.572 384.946 331.539 385 327C371.723 328.158 361.022 337.295 357 350z"/>
<path style="fill:#362d34; stroke:none;" d="M158 328C155.104 330.515 152.381 332.356 151 336C154.063 334.249 158.91 332.01 158 328z"/>
<path style="fill:#e9dde1; stroke:none;" d="M259 328C260.489 335.156 257.937 340.401 250 341L250 344L244 343C244.574 346.698 245.655 348.316 249 350C248.236 353.513 248.562 356.462 249 360C245.847 355.794 243.336 352.865 238 352L238 344C236.409 346.314 236.142 348.19 236 351L233 351C232.791 346.131 232.111 341.859 233 337C226.326 340.491 227.63 345.833 229 352C227.522 351.014 227.797 351 226 351C229.432 358.333 233.672 359.29 240 355C238.544 357.37 237.617 359.296 237 362L244 362C244.401 363.808 245.468 366.154 244.713 367.982C242.269 373.897 231.901 373.164 227 372C230.9 377.52 239.566 374.438 245 373C243.142 374.822 241.339 375.825 239 377C239.758 379.803 240.186 382.099 240 385C246.107 383.697 245.91 379.139 247.811 374C249.208 370.222 251.419 366.815 252.756 363C253.648 360.453 253.666 357.563 254.738 355.108C256.582 350.881 260.809 349.86 262 345L266 346L263 328L259 328M278 346C275.262 346.23 272.733 346.293 270 346C267.648 352.948 265.965 360.785 264.514 368C264.035 370.383 263.343 374.173 265.028 376.258C266.945 378.629 271.318 377.992 274 378L274 380C271.143 380.123 266.912 380 264.603 381.988C262.895 383.46 263.047 385.955 263.005 388.001C262.901 393.039 262.104 397.974 262 403C271.456 400.352 280.066 389.667 287 383.039C301.28 369.39 316.008 356.788 331 344C326.772 337.679 320.612 333.188 313 332L316 330C305.438 323.714 298.949 337.762 293.715 344.576C291.054 348.038 287.178 351.657 286.027 356C284.735 360.874 287.64 365.202 283.57 369.517C275.496 378.079 266.978 366.374 271.023 358C273.123 353.652 276.797 350.839 278 346M324 333C326.244 336.713 330.893 341.553 335 343C333.454 337.539 329.259 334.679 324 333M108 335L108 339C116.065 338.53 124.126 339.104 132 341C130.964 342.186 130.661 342.604 130 344C135.667 345.137 142.098 345.703 148 346C141.461 332.094 120.892 333.371 108 335M213 335C213.839 337.626 214.374 338.161 217 339C216.161 336.374 215.626 335.839 213 335M441 352C449.115 358.031 455.029 347.608 456.384 340.019C456.647 338.551 456.463 335.47 454.165 335.921C451.511 336.442 451.048 341.955 450.405 344C448.791 349.133 446.401 351.592 441 352M443 336L442 342C443.884 340.02 444.469 338.69 445 336L443 336M221 337L221 340L223 340L223 337L221 337M245 337L245 339L248 339L248 337L245 337M52 338L52 342C52.7102 340.24 52.7102 339.759 52 338M20 340C19.0643 341.949 18.6076 342.55 17 344C17.7755 347.621 19.2302 350.752 21 354C21.8108 351.761 21.5288 350.353 21 348C23.3876 345.631 21.5528 342.622 20 340M319 360C323.219 357.691 327.709 354.251 330 350C332.042 350.895 333.828 351.536 336 352C339.921 341.241 354.433 349.702 358 340C344.299 340 323.323 344.598 319 360M414 341C414.941 344.216 416.794 344.56 420 345C418.104 342.819 416.741 341.931 414 341M53 344L54 348C54.6831 346.494 54.8259 345.685 55 344L53 344z"/>
<path style="fill:#362d34; stroke:none;" d="M296 346C296.899 348.124 296.876 348.101 299 349C298.101 346.876 298.124 346.899 296 346z"/>
<path style="fill:#e9dde1; stroke:none;" d="M439 346C437.973 348.398 437.322 350.416 437 353L440 353C439.981 350.457 439.985 348.332 439 346M200 348C200.236 353.068 201.28 356.64 206 359C205.225 355.255 204.164 351.641 203 348L200 348M262 357C265.715 354.947 266.979 352.038 268 348C262.838 349.102 262.119 352.075 262 357M414 348C412.402 350.303 411.073 352.419 410 355C413.966 353.85 415.367 352.061 416 348L414 348z"/>
<path style="fill:#362d34; stroke:none;" d="M214 350C214.648 352.394 215.032 353.536 217 355L217 350L214 350z"/>
<path style="fill:#e9dde1; stroke:none;" d="M54 351C54.9802 352.783 54.9076 352.594 57 353C55.7772 351.805 55.5801 351.684 54 351M252 371C259.294 368.719 260.146 358.612 261 352C254.752 355.123 253.119 364.5 252 371M271 365C274.598 362.882 276.261 359.021 280 357C277.263 360.957 274.037 364.618 272 369L273 370L275 370C279.338 365.635 283.51 362.551 284 356C276.328 353.691 271.453 356.731 271 365M424 354C416.508 366.052 411.508 380.082 396 384C396.986 382.522 397 382.797 397 381C389.687 381.232 385.025 386.732 378 388C378.348 377.304 390.185 381.147 393 372C385.827 372.906 379.191 372.005 372 372C372.465 373.894 373.066 375.277 374 377C368.989 377.158 366.603 372.909 362 372.542C356.348 372.093 350.662 378.443 345 379.532C336.514 381.163 328.238 377.209 320 379C322.664 386.643 327.672 386.866 335 386.168C340.033 385.689 345.092 385.439 350 384.073C353.821 383.008 357.131 380.885 361 380C359.746 396.626 338.39 389.215 328 389C331.019 393.685 335.8 393.998 341 394C351.709 394.004 360.826 388.72 371 386C372.235 391.765 383.317 390 388 390C403.389 390 411.838 380.621 419.083 368C421.122 364.448 425.889 357.854 424 354M55 355L55 358C56.1952 356.777 56.3164 356.58 57 355L55 355z"/>
<path style="fill:#362d34; stroke:none;" d="M182 356L180 364C182.92 362 183.483 359.427 184 356L182 356M295 356C295 359.363 294.284 362.204 298 363L297 356L295 356z"/>
<path style="fill:#e9dde1; stroke:none;" d="M368 358C371.16 362.855 377.38 360.198 380 356L368 358M163 358C163.173 361.17 163.356 363.136 166 365C165.827 361.83 165.644 359.864 163 358M199 358C200.041 361.678 201.564 363.347 205 365C204.188 361.068 202.786 359.361 199 358M106 360C103.75 367.124 94.0726 365 88 365C90.0903 371.028 98.23 372.936 104 373L104 375C99.1265 375.754 95.0691 379.008 90 379.339C84.3539 379.708 79.5983 376.24 74 377C74 383.062 79.096 381.658 83 384L82 385C91.5901 384.242 100.125 381.386 109 378C111.589 382.123 117.362 383.305 122 384C118.549 380.196 113.688 377.962 109 376C113.386 375.719 116.775 377.775 121 378.621C125.454 379.514 130.458 379.805 135 380L135 376C125.867 374.109 112.633 369.174 109 360L106 360M283 363C281.049 366.071 278.581 368.733 277 372C281.666 370.399 284.019 367.848 285 363L283 363M227 364L227 366L232 367C229.582 367.722 227.528 367.948 225 368C229.653 372.751 238.972 372.026 244 368C242.598 366.649 241.824 365.746 241 364L227 364M24 366C25.9686 370.171 28.4045 372.29 33 373C30.3765 369.979 27.6405 367.668 24 366z"/>
<path style="fill:#362d34; stroke:none;" d="M191.333 370.667C191.278 370.722 191.222 371.778 191.667 371.333C191.722 371.278 191.778 370.222 191.333 370.667z"/>
<path style="fill:#e9dde1; stroke:none;" d="M52 376C56.4511 383.702 71.5652 391.592 79 384C74.8313 383.671 70.0542 383.304 66.1698 381.66C61.0683 379.5 57.7822 376.509 52 376M213 380C213.054 386.502 212.292 402.714 220 404C219.942 401.216 219.648 398.709 219 396C221.332 398.269 222.789 399.475 226 400C225.883 397.27 225.501 394.686 225 392C227.319 394.429 231.766 398.312 231.285 401.965C230.95 404.509 228.768 406.569 228 409C225.355 409.077 223.734 408.997 222 411C218.483 409.299 215.979 407.631 212 408C210.815 404.942 206.806 396.899 203 400C200.958 398.562 199.403 397.628 197 397C197.684 398.58 197.805 398.777 199 400C196.561 404.23 196.04 408.164 196 413C193.396 413.165 190.483 414.281 187.91 413.775C184.115 413.027 180.883 410.692 177 410C182.088 423.086 194.671 415.631 204.17 412.549C208.111 411.27 212.874 411.766 217 411C213.662 414.438 208.24 415.641 204 418L204 420C210.949 421.712 216.973 421.058 224 421C222.452 422.667 221.099 424.021 220 426C225.476 427.063 229.51 431.182 235 432L235 436C232.703 435.326 232.226 435.035 231 433C225.858 433.931 222.896 436.743 219 440C222.257 432.12 217.459 432.495 211 433C211.622 432.073 212.752 430.801 213.052 429.673C215.459 420.622 201.001 422.014 196.17 421.375C192.994 420.955 190.278 420.036 187 420C190.913 424.812 194.634 423.703 199.91 425.583C203.525 426.871 206.111 429.145 210 430C205.609 430.915 201.463 429.204 197 429C200.94 436.062 213.733 437.738 214 446L218 447C223.107 441.865 228.745 448.271 234.686 445.397C238.423 443.589 238.705 435.607 239 432C246.586 436.225 257.396 429.631 262 439C256.763 438.775 251.569 436.8 247 440C247 438.203 246.986 438.479 246 437L244 437C242.522 440.068 242.079 442.602 242 446C251.333 445.968 259.517 441.981 269 442C268.052 438.95 266.997 438.088 264 437C269.061 434.996 274.013 433.86 277 429L267 430C269.986 428.473 272.324 425.668 275.259 424.333C277.379 423.368 279.827 423.912 281.995 423.026C287.42 420.812 293.672 413.566 295 408C291.054 408.703 287.681 410.47 284 412C290.75 405.033 301.624 401.906 305 392C294.253 394.987 288.67 407.087 278 411C278.512 409.398 279.292 407.678 279.5 406C279.657 404.737 279.563 403.285 279.111 402.083C276.283 394.568 265.148 401.382 263.667 406.75C263.332 407.962 265.61 407.916 266 408C264.814 409.186 264.472 409.584 264 411C268.777 411.245 273.193 412.888 278 413L277 415L288 415C283.93 416.287 279.566 416.46 275.58 418.04C272.092 419.422 270.136 423.03 266.857 424.172C264.467 425.004 261.457 424.187 259 424L263 429L260 429L261 432C258.113 429.801 253.305 423.898 259.148 421.643C261.742 420.642 265.31 421.788 268 422L268 420L263 420L263 418L270 417C266.544 414.018 261.414 413.037 257 412C258.048 410.144 258.513 409.056 259 407L255 408C253.174 401.733 247.417 405.21 243.065 403C238.632 400.749 238.752 396.198 233 397L234 387C230.572 386.879 225.005 383.261 223 386C219.128 384.773 217.155 383.47 215 380L213 380z"/>
<path style="fill:#362d34; stroke:none;" d="M196 381C197.446 383.283 198.311 383.582 201 384C199.554 381.717 198.689 381.418 196 381z"/>
<path style="fill:#e9dde1; stroke:none;" d="M244 385L244 391C247.884 391.447 250.606 392.158 252 388C252.467 390.748 252.201 393.211 252 396L259 387L259 395L261 395C261 390.231 261.127 385.7 262 381C255.691 382.726 250.709 385.541 244 385M156 382C157.612 384.452 159.193 385.151 162 386C160.427 383.281 159.075 382.627 156 382M32 389L32 392L35 392L35 389L32 389M36 401.689C21.6174 405.335 26.6797 428.551 41 425.311C56.5433 421.794 51.1626 397.846 36 401.689M259.333 403.667C259.278 403.722 259.222 404.778 259.667 404.333C259.722 404.278 259.778 403.222 259.333 403.667M423 404C423.776 406.132 424.13 406.771 426 408L426 404L423 404M456 406C456.277 409.048 456.526 411.12 459 413L459 406L456 406z"/>
<path style="fill:#362d34; stroke:none;" d="M40 410L40 413L42 413L42 410L40 410M32 411C34.0235 414.945 35.9521 418.018 40 420C38.4783 416.831 36.1775 414.349 35 411L32 411M46 414L46 417C46.6961 415.446 46.6961 415.554 46 414z"/>
<path style="fill:#e9dde1; stroke:none;" d="M424 418C424.776 420.132 425.13 420.771 427 422C426.064 420.051 425.608 419.45 424 418M444.333 419.667C444.278 419.722 444.222 420.778 444.667 420.333C444.722 420.278 444.778 419.222 444.333 419.667z"/>
<path style="fill:#362d34; stroke:none;" d="M34 420L34 422L36 422L36 420L34 420z"/>
<path style="fill:#e9dde1; stroke:none;" d="M191 425C191.129 440.589 201.184 456.384 216 462C211.871 470.464 223.208 481.693 230 486C229.172 480.296 224.739 478.247 221.428 473.961C218.965 470.771 217.805 466.583 216 463C219.819 466.329 220.434 470.556 226 471C222.61 459.594 209.421 455.443 202.966 445.961C198.475 439.364 197.888 429.303 191 425M279.333 427.667C279.278 427.722 279.222 428.778 279.667 428.333C279.722 428.278 279.778 427.222 279.333 427.667M415 428C413.103 430.642 409.945 430.67 407 432C408.635 429.455 409.993 429.221 413 429L413 427C408.537 427.135 404.344 428.392 402.6 433.04C400.663 438.2 403.708 447.179 410.115 447.573C413.386 447.775 414.065 444.272 415.283 441.995C418.208 436.531 422.315 431.692 415 428M73 435L78 435L77 431C74.5083 431.97 73.8544 432.475 73 435M80 431C80.2107 433.739 80.3025 434.422 83 435L82 431L80 431M42.2778 432.786C36.7385 435.033 39.8771 445.277 45.8951 443.338C52.6016 441.177 48.8777 430.109 42.2778 432.786z"/>
<path style="fill:#362d34; stroke:none;" d="M261 432L262 433L261 432z"/>
<path style="fill:#e9dde1; stroke:none;" d="M278 432C276.32 435.224 275.908 438.705 274.435 442C270.845 450.032 264.619 458.255 258 464L260 459C254.468 461.835 253.189 467.258 252 473C256.463 472.735 259.576 472.664 261 468L258 469C264.821 461.634 271.853 454.264 276.06 445.015C277.998 440.754 279.9 436.535 278 432z"/>
<path style="fill:#362d34; stroke:none;" d="M412 432L409 437C411.444 435.675 412.611 434.816 412 432M409 438C408.132 440.355 407.426 442.531 407 445C408.856 442.734 409.653 440.894 409 438z"/>
<path style="fill:#e9dde1; stroke:none;" d="M24 441C24 449.716 21.565 460.744 24 469C31.7245 466.59 39.9177 467.022 48 467C46.8194 469.273 45.7677 471.369 46.5826 473.995C48.9229 481.538 54.7953 478.232 55 472C55.746 474.427 55.9068 477.69 57.6026 479.682C64.3388 487.597 75.4751 474.408 66.7731 469.434C64.7435 468.273 62.2609 468.187 60 468C63.5208 466.944 68.3662 465.286 72.0394 465.313C79.903 465.371 87.2794 469.322 95 470C96.6616 475.33 101.615 476.36 105.715 479.53C115.828 487.352 127.15 495.92 139 501C137.316 501.224 136.687 501.218 135 501C137.157 504.289 139.417 503.21 143 503.698C145.744 504.071 148.221 505.492 151 505.701C154.906 505.994 159.043 505.011 163 505C159.195 496.019 146.467 488.334 137 493C138.327 490.479 139.554 489.496 142 488C140.718 485.013 138.851 482.66 137 480C141.149 482.928 144.185 487.223 149 489C146.787 484.254 141.686 477.58 136.91 475.144C134.746 474.039 132.232 474.066 130.093 472.814C125.195 469.948 124.145 467.073 118 467C120.427 474.074 126.467 474.458 131.517 478.978C134.271 481.443 135.072 484.569 136 488C132.159 484.901 129.544 480.222 125.486 477.43C122.289 475.23 117.568 473.681 114 472L115 476C112.652 474.17 111.383 472.637 110 470L113 471C110.631 464.546 101.343 454.91 94 456C96.7108 459.402 99.7856 462.2 102 466C98.9043 464.873 96.1094 463.049 93 461.98C90.3884 461.082 87.5481 461.332 85.0147 460.183C79.8148 457.825 75.7485 453.992 70 452.554C62.6411 450.714 55.4096 451.939 48 452L48 455L44 455C45.543 456.267 46.0478 456.489 48 457C38.2129 459.162 30.709 447.823 26 441L24 441M434 456C434.56 452.902 437.645 449.036 437.407 446.059C437.181 443.228 433.412 442.923 431.303 443.49C426.108 444.887 424.666 451.925 429.319 454.972C430.764 455.918 432.357 455.873 434 456M256 444L256 446L259 446L259 444L256 444M374 444L374 447L377 447L377 444L374 444M88 450C89.6747 452.221 91.2566 452.562 94 453C92.012 450.939 90.843 450.421 88 450M241 479L245 479C244.971 468.141 247.591 459.715 252 450C249.855 450.89 247.963 451.894 246 453.158C235.323 460.031 243.307 469.264 241 479M227 452C230.773 457.279 231.118 466.599 230 473L238 473L239 456C234.898 454.819 231.221 452.752 227 452M385 453L385 456L388 456L388 453L385 453M448 461L448 465C449.267 463.457 449.489 462.952 450 461L448 461M443 464L442 465L442 467C444.364 466.518 444.518 466.364 445 464L443 464z"/>
<path style="fill:#362d34; stroke:none;" d="M49 468C52.8087 467.701 55.4163 469.084 59 470C56.9863 466.514 51.7443 464.241 49 468z"/>
<path style="fill:#e9dde1; stroke:none;" d="M75 473C77.4853 471.987 78.5976 471.274 80 469C76.9867 469.508 76.127 470.159 75 473z"/>
<path style="fill:#362d34; stroke:none;" d="M49 472C51.4569 472.516 52.502 471.994 54 470C52.125 470.547 50.7447 471.11 49 472z"/>
<path style="fill:#e9dde1; stroke:none;" d="M335 470L335 474C337.626 473.161 338.161 472.627 339 470L335 470z"/>
<path style="fill:#362d34; stroke:none;" d="M64 479C63.3779 475.949 63.0555 474.016 64 471C59.6608 473.061 59.9525 476.662 64 479z"/>
<path style="fill:#e9dde1; stroke:none;" d="M223 472C224.154 474.249 224.751 474.846 227 476L227 472L223 472M34 476C35.5394 478.179 36.3555 478.573 39 479L39 476L34 476M373 480C376.332 480.638 377.842 480.294 379 477C376.434 477.598 374.978 478.268 373 480M85 479C86.2227 480.195 86.42 480.316 88 481C87.0198 479.217 87.0924 479.406 85 479M332 479L331 483L335 483L334 479L332 479M363 485L363 482C359.149 482.627 357.313 484.924 353.871 486.277C350.364 487.656 347.352 486.67 345 490C349.493 492.253 352.017 497.67 346.782 501.169C341.078 504.982 333.125 503.824 330 498C334.109 501.542 338.977 503.663 341 497L342 501C343.716 500.65 345.315 500.472 346.703 499.258C351.903 494.709 344.206 488.191 340 494C335.326 493.035 332.499 495.079 328.015 495.875C322.25 496.898 317.48 499.255 312 501.126C309.571 501.955 306.689 501.665 304.464 503.027C298.575 506.631 290.788 517.438 289 524C293.8 523.187 298.069 522.014 303 522C303 520.203 302.986 520.479 302 519C306.371 517.101 310.194 514.405 315 513.529C319.244 512.756 323.333 515.066 326 511C323.066 510.541 321.231 509.953 319 508C322.377 508.524 325.605 510.272 329 510.451C338.042 510.927 346.209 504.84 354 501.275C358.103 499.397 361.621 500.314 364 496C365.635 496.545 365.455 496.365 366 498C368.492 497.03 369.146 496.525 370 494C377.569 496.623 385.07 502.067 392 506.152C397.677 509.498 401.243 512.59 408 511C410.47 514.52 414.823 516.064 417.907 519.104C425.533 526.624 430.633 542.054 421 550C429.42 533.34 421.091 519.533 404 514C398.15 524.703 395.394 544.617 411 549C412.704 547.045 415.405 545.329 416.397 542.871C420.855 531.819 410.138 525.831 401 528C407.952 520.929 416.87 529.828 419 537L422 536C421.974 539.122 421.724 541.96 421 545C420.79 543.153 420.806 541.857 421 540C417.508 542.685 416.075 546.696 412 549L412 551C415.35 552.414 420.109 554.085 423.698 552.397C426.042 551.294 426.9 548.187 427.88 545.999C430.779 539.526 430.872 534.9 430 528C432.05 532.09 432.644 535.467 432 540C437.209 537.127 435.518 532.866 434 528C436.082 529.098 437.67 529.685 440 530C438.62 533.19 437.918 536.969 435.995 539.871C433.202 544.087 429.97 545.665 429 551C440.628 545.452 443.85 533.969 441 522C448.833 519.973 454.565 516.006 463 516C463 504.727 462.334 493.241 463 482C460.438 482.736 460.017 483.519 459 486C451.495 481.098 436.143 481.297 433 491C445.529 491.267 451.73 500.228 448 512C447.789 505.328 449.592 499.22 442.906 494.603C433.447 488.073 423.218 498.293 426 508C424.548 508.251 424.248 508.315 423 509C427.53 515.437 433.251 519.688 434 528C432.282 524.149 430.937 520.339 428.177 517.058C425.301 513.637 421.586 512.331 420 508C415.54 508.105 412.096 509.331 408 511C410.298 508.777 412.797 507.479 416 506.85C417.952 506.466 420.698 507.061 422.4 505.887C424.838 504.206 425.722 497.738 427 495C422.609 494.909 418.359 493.62 414 493.575C409.653 493.53 405.322 494.659 401 495L401 493C404.801 493 408.343 493.081 412 492C408.277 490.434 405.023 491.087 402 488L398 489C398.598 490.195 398.466 489.977 400 491C396.637 491.551 386.751 491.741 387.444 486.111C387.614 484.734 389.395 483.239 390 482C386.489 482.192 383.41 480.82 380 480.885C373.571 481.008 368.823 482.604 363 485M245 484C246.58 483.316 246.777 483.195 248 482C246.42 482.684 246.223 482.805 245 484z"/>
<path style="fill:#362d34; stroke:none;" d="M119 483C121.045 488.416 126.641 491.412 132 493C131.116 488.856 122.784 485.003 119 483z"/>
<path style="fill:#e9dde1; stroke:none;" d="M70 484L70 486L72 486L72 484L70 484M243.333 486.667C243.278 486.722 243.222 487.778 243.667 487.333C243.722 487.278 243.778 486.222 243.333 486.667M405 487L406 488L405 487M32 488C32.6736 490.297 32.9653 490.774 35 492L35 488L32 488z"/>
<path style="fill:#362d34; stroke:none;" d="M136 488L137 489L136 488M431 499L439 496C435.411 494.616 432.892 495.761 431 499M442 498C440.896 500.357 440.043 501.376 438 503L440 511C434.681 511.386 431.078 508.809 426 508L433.482 513.108L441 521L447 512C443.913 513.561 441.447 515.311 438 516C442.005 511.007 449.97 503.03 442 498z"/>
<path style="fill:#e9dde1; stroke:none;" d="M40 500C39.2553 503.268 40.4047 507.819 38 510C43.6772 518.988 54.9093 507.507 47.5664 501.988C45.5207 500.451 42.4376 500.317 40 500z"/>
<path style="fill:#362d34; stroke:none;" d="M43 503C43.5731 506.101 44.2021 508.834 44 512C46.3348 508.869 46.1988 505.436 43 503M432 506L432 508L437 508L437 506L432 506z"/>
<path style="fill:#e9dde1; stroke:none;" d="M70 509C67.4061 513.016 61.4337 512.897 57.2855 515.12C47.5081 520.36 40.2929 529.818 39.1705 541C37.6514 556.135 43.6833 571.413 58.0039 578.306C74.9491 586.461 100.184 575.5 103 556C98.9669 556.694 95.1161 558.804 91.0008 557.468C79.0294 553.583 82.8203 540.395 90 534C90.1102 538.689 91.0102 543.203 94.3904 546.736C101.073 553.721 112.103 551.299 116.312 542.996C121.842 532.087 112.27 519.127 100.039 522.318C94.9645 523.642 93.2153 529.485 90 533C91.046 530.188 94.6839 525.827 94.1188 522.834C93.6308 520.249 91.0395 518.322 88.9954 516.966C83.7705 513.5 76.0107 510.624 70 509z"/>
<path style="fill:#362d34; stroke:none;" d="M314 509L314 511L316 511L316 509L314 509z"/>
<path style="fill:#e9dde1; stroke:none;" d="M382.667 509.333C382.222 509.778 383.278 509.722 383.333 509.667C383.778 509.222 382.722 509.278 382.667 509.333z"/>
<path style="fill:#362d34; stroke:none;" d="M415 511C416.223 512.195 416.42 512.316 418 513C417.02 511.217 417.092 511.406 415 511z"/>
<path style="fill:#e9dde1; stroke:none;" d="M118 512L118 514L120 514L120 512L118 512M382 515C384.297 514.326 384.774 514.035 386 512C383.261 512.211 382.578 512.303 382 515M127 513C128.226 515.035 128.703 515.326 131 516C130.422 513.302 129.739 513.211 127 513M387 513L387 518C389.964 517.032 390.503 516.066 391 513L387 513z"/>
<path style="fill:#362d34; stroke:none;" d="M419 513C421.113 518.383 425.558 524.321 430 528C428.643 522.278 424.343 515.693 419 513z"/>
<path style="fill:#e9dde1; stroke:none;" d="M400 515C399.014 516.479 399 516.203 399 518C400.289 516.557 400.401 516.766 400 515M369 516L369 519L373 519L373 516L369 516z"/>
<path style="fill:#362d34; stroke:none;" d="M64 521C56.9709 519.832 51.4452 526.389 51 533C54.7799 532.524 57.6531 531.757 59 528C56.6247 529.147 54.5596 530.333 52 531C53.8206 527.033 57.7082 525.595 60 522C61.6352 522.545 61.4549 522.365 62 524L64 524C66.3782 521.822 69.0344 520.271 72 519C68.913 517.895 66.0821 518.425 64 521M403 522C410.625 525.231 415.042 525.221 420 533C422.428 523.718 409.588 520.831 403 522M102 527L108 527C105.987 524.18 103.927 524.105 102 527z"/>
<path style="fill:#e9dde1; stroke:none;" d="M295 528C298.309 527.569 300.962 526.348 304 525C300.37 523.886 297.185 524.936 295 528z"/>
<path style="fill:#362d34; stroke:none;" d="M98 526C99.2801 528.556 100.611 530.428 103 532C102.536 529.828 101.895 528.042 101 526L98 526M107 528L106 532C107.645 532.177 107.647 532.141 109 533C109.622 531.057 109.436 530.051 109 528L107 528z"/>
<path style="fill:#e9dde1; stroke:none;" d="M356 529L356 531L358 531L358 529L356 529z"/>
<path style="fill:#362d34; stroke:none;" d="M95 530C94.3174 532.401 94.1177 534.798 93 537L93 539C94.7828 540.965 95.7829 543.553 97.6481 545.428C104.002 551.814 109.39 544.543 115 542L116 536L111 537L112 541C109.982 541.878 108.768 542.651 107 544L106 539L101 540C99.6174 537.683 98.5133 537.037 96 536C96.9695 534.4 97.7204 533.337 99 532C97.6234 531.089 96.5601 530.596 95 530M404 530C404.077 532.645 403.997 534.266 406 536L405 540C406.985 541.277 407.849 541.981 409 544L414 544C416.344 535.974 411.831 531.085 404 530M98 534C100.283 535.222 102.428 535.652 105 536C105 534.203 104.986 534.479 104 533L98 534M48 534L47 540C52.6551 544.973 52.4179 554.157 61 556C60.2176 554.416 59.1301 553.4 58 552C62.8521 552.673 67.2051 549.985 70 555C72.3827 551.065 69.6189 548.91 68.4074 545C66.7598 539.683 67.9562 536.441 62 534C65.2308 538.151 68.8832 551.305 59.0039 550.199C53.0281 549.53 50.6202 538.84 51 534L48 534M108 535L107 537L109 537C109 535.147 109.3 535.65 108 535z"/>
<path style="fill:#e9dde1; stroke:none;" d="M355 535C352.008 538.17 348.193 541.792 344 543C343.161 548.141 340.062 547.814 336.478 550.727C332.798 553.718 332.247 557.77 327 558C328.434 560.801 332.118 567.382 335 568C334.119 570.021 333.504 571.854 333 574L340 572C339.033 574.932 337.579 577.348 336 580L342 578C341.105 580.042 340.464 581.828 340 584C343.422 584.028 346.637 584.375 350 585L353 582L354 586L356 586L357 582C360.904 583.574 363.044 582.867 367 582C367.511 580.048 367.733 579.543 369 578L369 569C366.463 568.345 364.953 567.724 363 566L368 566C368.684 564.42 368.805 564.223 370 563C369.707 560.267 369.77 557.738 370 555L366 555L369 550C366.416 550.322 364.398 550.973 362 552C362.028 549.862 361.316 550.159 359 550L360 544C356.648 541.827 357.013 538.769 357 535L355 535M408 537C409.223 538.195 409.42 538.316 411 539C410.02 537.217 410.092 537.406 408 537M320.058 539.872C313.669 541.725 316.477 552.944 323.021 551.512C330.958 549.774 327.621 537.678 320.058 539.872M97 540C98.0012 541.924 98.0775 542.098 100 543C99.5175 540.636 99.364 540.482 97 540M390 540L389 544C391.035 542.774 391.326 542.297 392 540L390 540M103 541L103 544L105 544L105 541L103 541z"/>
<path style="fill:#362d34; stroke:none;" d="M45 542C45 550.076 44.3183 557.483 53 561L51 565C58.8856 566.198 62.6668 573.854 71 575C68.4699 572.333 65.3372 571.178 62.4252 569.001C57.492 565.313 51.321 559.084 48.0093 553.91C45.6315 550.195 46.6209 545.861 45 542M71 543L71 547L73 547L73 543L71 543M318 546C319.949 545.064 320.55 544.608 322 543C319.703 543.674 319.226 543.965 318 546z"/>
<path style="fill:#e9dde1; stroke:none;" d="M102.667 545.333C102.222 545.778 103.278 545.722 103.333 545.667C103.778 545.222 102.722 545.278 102.667 545.333z"/>
<path style="fill:#362d34; stroke:none;" d="M55 546L56 547L55 546M418 547L417 548L417 550C419.364 549.518 419.518 549.364 420 547L418 547z"/>
<path style="fill:#e9dde1; stroke:none;" d="M28 552C29.2259 554.035 29.7026 554.326 32 555C30.7741 552.965 30.2974 552.674 28 552z"/>
<path style="fill:#362d34; stroke:none;" d="M68 556L69 557L68 556M349.318 557.043C344.671 559.964 348.345 568.985 353.856 565.953C359.72 562.727 355.128 553.391 349.318 557.043z"/>
<path style="fill:#e9dde1; stroke:none;" d="M175 558C176.127 560.841 176.987 561.492 180 562C179.419 558.51 178.56 557.453 175 558z"/>
<path style="fill:#362d34; stroke:none;" d="M63 558C64.314 559.618 64.8772 559.693 67 560C65.542 558.919 64.752 558.564 63 558z"/>
<path style="fill:#e9dde1; stroke:none;" d="M439 559L439 563L442 563L442 559L439 559z"/>
<path style="fill:#362d34; stroke:none;" d="M68 560C70.0521 560.874 71.7472 560.953 74 561C71.9479 560.126 70.2528 560.047 68 560M92 561C89.329 563.093 85.9344 564.149 83 566L84 569C80.0625 566.63 76.4469 564.284 72 563C74.6663 566.913 80.5286 569.549 85 571C86.2767 569.085 86.2767 569.915 85 568L89 569C90.6648 566.09 93.022 564.304 94 561L92 561z"/>
<path style="fill:#e9dde1; stroke:none;" d="M285 562L285 564L287 564L287 562L285 562z"/>
<path style="fill:#362d34; stroke:none;" d="M64 568C66.8227 567.066 67.8106 565.707 69 563C66.4028 564.33 65.4091 565.436 64 568z"/>
<path style="fill:#e9dde1; stroke:none;" d="M29.3179 567.029C23.4438 570.896 29.4373 580.717 35.7716 576.968C42.4536 573.012 35.6753 562.843 29.3179 567.029z"/>
<path style="fill:#362d34; stroke:none;" d="M57.6667 571.333C57.2222 571.778 58.2778 571.722 58.3333 571.667C58.7777 571.222 57.7222 571.278 57.6667 571.333M79 573C81.0521 573.874 82.7472 573.953 85 574L85 572C82.7951 572.094 81.1059 572.356 79 573M218 572C218.849 575.571 220.189 577.649 223 580C221.975 576.551 220.73 574.346 218 572z"/>
<path style="fill:#e9dde1; stroke:none;" d="M396.303 574.175C392.963 575.817 395.247 580.742 398.697 579.338C402.115 577.947 399.569 572.57 396.303 574.175M429 573L430 577L432 577L433 573L429 573M178 577C179.223 578.195 179.42 578.316 181 579C180.02 577.217 180.092 577.406 178 577z"/>
<path style="fill:#362d34; stroke:none;" d="M251 578C251.564 580.953 252.645 583.316 254 586C255.329 582.484 254.096 579.954 251 578M218 581L217 587C219.08 585.333 219.423 583.609 220 581L218 581M20 595L20 621C69.9966 621 119.989 623 170 623C180.331 623 190.67 622.881 201 623.004C204.6 623.047 209.386 624.666 212.79 623.243C215.768 621.998 216.971 618.78 218 616C213.682 616.538 210.314 615.885 208 612C202.777 613.195 198.386 616.193 193 617L202 610C200.752 609.315 200.452 609.251 199 609C200.318 602.852 197.818 598.561 206 598C201.785 596.231 196.536 597 192 597C182.433 597 172.526 597.737 163 596.83C141.55 594.789 119.561 596 98 596C71.9545 596 45.9953 595 20 595M262 597L262 599C266.976 599.045 270.068 599.861 274 603C270.632 603.802 267.455 603.99 264 604L265 608L259 608C260.797 610.663 262.667 613.08 264 616L255 612C255.873 614.687 256.674 621.243 258.756 622.972C261.867 625.556 270.18 624 274 624C287.722 624 301.284 625 315 625C334.026 625 353.041 626 372 626C388.883 626 406.158 624.936 423 626.089C433.364 626.799 443.584 627 454 627C457.121 627 462.779 628.046 465.397 625.972C467.565 624.255 466.995 620.42 467 618L467 598C458.145 596.356 448.977 597 440 597L397 597L262 597M218 599C219.6 607.261 225.976 611.797 234 613C228.341 608.306 223.188 604.35 218 599M253 600C250.803 604.3 248.099 607.433 244 610C249.698 611.315 253.271 604.557 255 600L253 600z"/>
<path style="fill:#e9dde1; stroke:none;" d="M439 609C441.254 609.749 442.314 610.344 444 612L439 611C439.712 615.363 441.725 616.518 446 617C446.951 613.326 448.573 611.595 452 610C450.758 602.213 442.19 602.675 439 609M55 606C56.543 607.267 57.0478 607.489 59 608C59 606.203 58.9857 606.479 58 605C56.2032 605 56.4785 605.014 55 606M93 614C94.1407 618.228 95.6034 619.658 100 620C99.5354 618.106 98.9341 616.723 98 615C99.6375 615.371 101.3 615.918 103.005 615.592C111.053 614.054 105.607 602.882 99.1481 606.223C95.9221 607.892 96.0267 612.048 93 614M172 608C173.81 609.24 173.777 609.184 176 609C174.19 607.76 174.223 607.816 172 608M384 608C384.539 610.428 384.506 611.03 383 613C381.796 607.379 374.573 611.215 375.278 615.972C375.849 619.827 381.642 622.681 384.667 619.667C386.365 617.975 385.991 615.177 386 613C392.28 611.092 389.89 606.431 384 608M411 611C413.626 610.161 414.161 609.626 415 607C412.374 607.839 411.839 608.374 411 611M61 608L61 610L63 610L63 608L61 608M315 613L315 616L318 616L318 613L315 613M308 614C308.899 616.124 308.876 616.101 311 617C310.518 614.636 310.364 614.482 308 614z"/>
<path style="fill:#362d34; stroke:none;" d="M382.667 616.333C382.222 616.778 383.278 616.722 383.333 616.667C383.778 616.222 382.722 616.278 382.667 616.333z"/>
<path style="fill:#e9dde1; stroke:none;" d="M462 617C461.014 618.479 461 618.203 461 620C462.766 619.021 462.955 618.778 462 617M204 618L204 621L206 621L206 618L204 618z"/>
</svg>
